<svg xmlns="http://www.w3.org/2000/svg" viewBox="0 0 1612.53 337.7"><defs><style>.cls-1{fill:#fff;stroke:#000;stroke-miterlimit:10;}</style></defs><title>title</title><g id="Laag_1" data-name="Laag 1"><path class="cls-1" d="M123.84,258.62a7.14,7.14,0,0,1-2.48.24,6.35,6.35,0,0,1-5.29-.85L94.62,242.7c-3.31-2.36-4.9-6.49-2.69-10.26,1.91-3.27,7-5,10.26-2.69l5.15,3.67a7.94,7.94,0,0,1,5.6-7.35c4.18-1.15,7.78,1.46,9.23,5.24q3.45,9,6.91,18.08C130.54,253.19,127.46,257.62,123.84,258.62Z"/><path class="cls-1" d="M63.86,220.22a7.5,7.5,0,0,1,0,10.61,7.74,7.74,0,0,1-5.3,2.2H55.49a7.78,7.78,0,0,1-5.3-2.2,6.12,6.12,0,0,1-1.43-2,6.89,6.89,0,0,1-7,5.73c-9.67,0-9.66-15,0-15a6.78,6.78,0,0,1,6.52,4.09,8.17,8.17,0,0,1,2-3.43,7.73,7.73,0,0,1,5.3-2.19h3.07A7.82,7.82,0,0,1,63.86,220.22Z"/><path class="cls-1" d="M86,225.53a7.55,7.55,0,0,1-2.2,5.3,7.74,7.74,0,0,1-5.3,2.2H75.41a7.81,7.81,0,0,1-5.31-2.2,7.54,7.54,0,0,1-2.19-5.3,7.62,7.62,0,0,1,2.19-5.31A7.73,7.73,0,0,1,75.41,218h3.06a7.8,7.8,0,0,1,5.3,2.19A7.59,7.59,0,0,1,86,225.53Z"/><path class="cls-1" d="M84.11,209.9a287.27,287.27,0,0,1-35.18-9.4c-9.11-3.07-5.18-17.55,4-14.47a287.31,287.31,0,0,0,35.18,9.41C97.57,197.34,93.54,211.79,84.11,209.9Z"/><path class="cls-1" d="M24.85,203.92a6.8,6.8,0,0,1-6.56-4.16,5.22,5.22,0,0,1-.39.43,7.74,7.74,0,0,1-5.3,2.2H8a7.5,7.5,0,0,1-5.3-12.8,7.74,7.74,0,0,1,5.3-2.2h4.6a7.36,7.36,0,0,1,6.61,4.13,6.84,6.84,0,0,1,5.64-2.6C34.52,188.92,34.51,203.92,24.85,203.92Z"/><path class="cls-1" d="M58.4,161.19c.18,4.05-3.58,7.5-7.5,7.5H43.24a7.63,7.63,0,0,1-7.5-7.5c-.18-4.05,3.57-7.5,7.5-7.5H50.9A7.63,7.63,0,0,1,58.4,161.19Z"/><path class="cls-1" d="M181.94,175.69l1.53,1.53a7.28,7.28,0,0,0,8.19,1.55,5.63,5.63,0,0,0,2.42-1.55l1.17-1.52a7.41,7.41,0,0,0,1-3.79c-.09-.66-.17-1.32-.26-2a7.55,7.55,0,0,0-1.93-3.31l-1.53-1.53a7.24,7.24,0,0,0-8.2-1.55,5.6,5.6,0,0,0-2.41,1.55l-1.17,1.52a7.51,7.51,0,0,0-1,3.78l.27,2A7.55,7.55,0,0,0,181.94,175.69Z"/><path class="cls-1" d="M513.7,180.52l-8.74-1c1.83,0,3.67.08,5.51.15A7.69,7.69,0,0,1,513.7,180.52Z"/><path class="cls-1" d="M619.69,202.05,606,203.91c-4,.55-8-.9-9.23-5.23-1-3.53,1.22-8.69,5.24-9.23l7.84-1.07a4.73,4.73,0,0,1-.46-.44l-1.53-1.53a7.46,7.46,0,0,1-1.93-3.31l-.27-2a7.5,7.5,0,0,1,1-3.78l1.18-1.52a7.7,7.7,0,0,1,10.6,0l1.54,1.53a7.53,7.53,0,0,1,1.92,3.31l.27,2a7.41,7.41,0,0,1-1,3.79c-.37.47-.73,1-1.1,1.43a6.83,6.83,0,0,1,4.91,5C625.9,196.35,623.71,201.5,619.69,202.05Z"/><path class="cls-1" d="M562.55,208.27q-18.56.3-37.09,1.32a8.22,8.22,0,0,1,1.26,2.68c7.12,2.31,6.29,14.63-2.46,14.63a6.87,6.87,0,0,1-7-5.38,14.59,14.59,0,0,1-9.54-5,18,18,0,0,1-3.28-5.58q-9.63.72-19.25,1.67l3,3a7.64,7.64,0,0,1,0,10.61c-2.74,3-7.83,2.77-10.61,0l-4.59-4.6a7.37,7.37,0,0,1-1.78-7.52q-17,1.89-33.88,4.44c-4,.6-8-1-9.23-5.24-1-3.57,1.24-8.63,5.24-9.23q15.64-2.35,31.35-4.2a6.81,6.81,0,0,1-.05-.78,7.07,7.07,0,0,1,.51-2.68q-10.8,1.23-21.5,3.28c-9.45,1.8-13.46-12.66-4-14.47a323.16,323.16,0,0,1,37.12-4.9,6.67,6.67,0,0,1,6-3.16l4.84.52c-2.5-3.81-1.82-10,3.86-11.74a43.18,43.18,0,0,1,19.37-1.17c4,.6,6.21,5.7,5.24,9.23-1.16,4.24-5.22,5.83-9.22,5.24a22,22,0,0,0-5.55-.08c1.18.13,2.35.25,3.52.39H505l8.74,1a6.05,6.05,0,0,1,1.09.68l5.42,0c7.43.8,9.27,9.74,4.84,13.41q18.74-1,37.5-1.36C572.22,193.12,572.2,208.12,562.55,208.27Z"/><path class="cls-1" d="M391,188.93H375.67c-9.65,0-9.67,15,0,15H391C400.64,203.93,400.65,188.93,391,188.93Z"/><path class="cls-1" d="M386.39,230c9.65,0,9.67-15,0-15S376.72,230,386.39,230Z"/><path class="cls-1" d="M588.47,169.14c0,4.38-3.48,7.05-7.5,7.5a68.79,68.79,0,0,0-12.72,2.67c-1.48.45-3,.95-4.4,1.5a80.52,80.52,0,0,0-19.45,10.71c-3.24,2.41-8.42.54-10.26-2.69-2.16-3.79-.59-7.83,2.69-10.26l.87-.63c-4.23-3.73-2.55-13,4.94-13.5a85.1,85.1,0,0,1,19.92,1.07A98,98,0,0,1,581,161.64C585,161.19,588.47,165.44,588.47,169.14Z"/><path class="cls-1" d="M568.25,179.31a7.19,7.19,0,0,1-4.4,1.5C565.3,180.26,566.77,179.76,568.25,179.31Z"/><path class="cls-1" d="M520.21,181.22l-5.42,0a6.05,6.05,0,0,0-1.09-.68Z"/><path class="cls-1" d="M590.14,237.63c9.65,0,9.66-15,0-15S580.47,237.63,590.14,237.63Z"/><path class="cls-1" d="M656,131.93h9.19c3.92,0,7.68-3.45,7.5-7.5a7.63,7.63,0,0,0-7.5-7.5H656c-3.93,0-7.68,3.45-7.5,7.5A7.63,7.63,0,0,0,656,131.93Z"/><path class="cls-1" d="M628.46,108.65l64.32,4.79c9.63.72,9.59-14.29,0-15l-64.32-4.79C618.83,92.93,618.87,107.93,628.46,108.65Z"/><path class="cls-1" d="M707.28,89.77c-5.24,5-12.52.29-12.89-5.18-1.43,0-2.86,0-4.29,0l-9.86-.09-20.69-.18c-4,0-6.48-2.76-7.28-6.24l-.21-.12a14.14,14.14,0,0,0-3,0c-1.8.16-3.65.57-5.45.82-4.37.6-8.75,1-13.15,1.22-6.81.27-14.3.55-20.86-1.63-5.24-1.75-12.4-6.61-12.39-12.94a7.69,7.69,0,0,1-.25-.84c.36.07.73.14,1.09.23-1-1.09-1.32-1.17-1.09-.23-.54-.09-1.07-.16-1.62-.2a34.75,34.75,0,0,0-5.3-.11A38,38,0,0,0,578.2,67c-9.06,3.4-12.94-11.1-4-14.46,8.8-3.31,20.86-5.14,29.84-1.38,4.53,1.89,6.73,5.62,7.58,10.33.28,1.6-.16,1.3,1.4,2.23a12,12,0,0,0,4.31,1.16c9.67,1.34,19.89-.26,29.46-1.58,7.14-1,13.89.9,17.54,6,10.68,0,21.45-.29,32.08.32,5.09.29,10.09,1.87,12.76,6.55A11.09,11.09,0,0,1,707.28,89.77Z"/><path class="cls-1" d="M598,64.85c-.36-.09-.73-.16-1.09-.23C596.68,63.68,597.05,63.76,598,64.85Z"/><path class="cls-1" d="M527.05,97.44l-.14.5c0-.35,0-.7,0-1Z"/><path class="cls-1" d="M467.58,23.16c9.65,0,9.67-15,0-15S457.91,23.16,467.58,23.16Z"/><path class="cls-1" d="M541.57,77.42c-10-1.48-17.2-11.33-14.21-21.32,2.77-9.27-11.7-13.23-14.47-4s-.55,19.41,4.94,27.17c-2.43,2.68-3.24,6.9-.06,10.29,1.58,1.69,3.61,3.47,5.51,5.33q-3,1-6,1.85c-4.93,1.43-9.91,2.63-14.94,3.66-9.45,1.93-5.45,16.4,4,14.46,5.62-1.15,11.18-2.52,16.68-4.17,4.69-1.42,10.61-2.66,14.66-5.49,5.56-3.87,5-8.64,2.23-13.24a7.3,7.3,0,0,0,6.87-5.33C547.81,83.12,545.57,78,541.57,77.42Zm-14.52,20-.14.5c0-.35,0-.7,0-1Z"/><path class="cls-1" d="M452.26,105.88c9.65,0,9.67-15,0-15S442.6,105.88,452.26,105.88Z"/><path class="cls-1" d="M344.47,142.58c-.49.15-1,.29-1.46.46h0c-1.51.46-3,.94-4.49,1.46a8.23,8.23,0,0,1,3.09,6.11c0,4.38-3.47,7-7.5,7.5a42.48,42.48,0,0,1-24.16-4.66c-4.93-2.48-4.85-10.45,0-13a180.72,180.72,0,0,1,16.85-7.63,9.34,9.34,0,0,0-2.86-3.06c-4.49-2.77-11.25-3.62-16.29-5.18l-16.73-5.15c-9.21-2.84-5.26-17.31,4-14.47,10.15,3.13,20.35,6.12,30.45,9.39,4.32,1.4,8.38,3.19,11.36,6.73a32.14,32.14,0,0,1,3.36,5.26c.3.53.64,1.06.94,1.6l-.42.11a.66.66,0,0,1,.6.22c.39.78.33.31,0,0L341,128C350.07,125.8,353.05,139.19,344.47,142.58Z"/><path class="cls-1" d="M341,128l.18.33a.66.66,0,0,0-.6-.22Z"/><path class="cls-1" d="M344.47,142.58A11.21,11.21,0,0,1,343,143C343.5,142.87,344,142.73,344.47,142.58Z"/><path class="cls-1" d="M927.61,225.11a164.61,164.61,0,0,1-39.41,3.5c-9.24-.35-27.27.36-29.43-11.84-1.64-9.25,12.14-13.3,14.32-4.61l-.35-.1c-.91-.43-.75-.19.49.72a6.21,6.21,0,0,0-.14-.62,14.75,14.75,0,0,0,2,.39c2.45.43,5,.56,7.49.75,4.38.32,8.78.46,13.17.4a145.32,145.32,0,0,0,27.89-3.06C933.06,208.69,937.06,223.16,927.61,225.11Z"/><path class="cls-1" d="M873.23,212.78c-1.24-.91-1.4-1.15-.49-.72l.35.1A6.21,6.21,0,0,1,873.23,212.78Z"/><path class="cls-1" d="M933.94,201.33c4.61-1.94,10.08-4.32,15.2-3.93s9.36,3.87,14,5.62c10,3.78,20.94,3,31.34,2.08,9.53-.87,9.62-15.88,0-15-5.82.53-11.71,1.1-17.55.65s-10.45-2.71-15.67-5.19c-12-5.69-23.34-2.05-34.88,2.82-3.77,1.59-4.51,7.07-2.69,10.26C925.89,202.53,930.23,202.9,933.94,201.33Z"/><path class="cls-1" d="M1034.4,233.09l85.81-10.52c4-.5,7.5-3.1,7.5-7.5,0-3.67-3.45-8-7.5-7.5l-85.81,10.52c-4,.49-7.5,3.1-7.5,7.5C1026.9,229.26,1030.35,233.59,1034.4,233.09Z"/><path class="cls-1" d="M1431.25,242.08l-81.38-14c23.42-5.79,49.05-8.67,63.91-30,5.53-7.93-7.47-15.44-13-7.57-6.33,9.09-16.75,13.52-27,16.49-11.66,3.37-23.7,5.2-35.35,8.6a105.6,105.6,0,0,0-12.64,4.51,7.92,7.92,0,0,0-8.31-3.74q-7.41,1.53-14.68,3.63l-55.68-9.56c-14.64-2.52-29.91-4.43-44.05-9.36a21.6,21.6,0,0,0,1.21-16.11c-5.19-15-24.06-15.61-36.78-11.72-9.2,2.82-5.28,17.3,4,14.47,4.77-1.46,14.51-3.91,18.17,1.22a5.47,5.47,0,0,1,.26,5.14c-.79,1.7-.68,1.32-1.87,1.22-7.42-.66-10.23,10.69-3.79,14,15.23,7.77,31.81,11,48.48,13.85a7.28,7.28,0,0,0,7.1,6.32,36.9,36.9,0,0,1,6.75.88,6.49,6.49,0,0,0-.74,4c-5.29,2.23-10.65,4.36-15.94,6.59-7,2.92-7.19,11.6,0,14.46a25.42,25.42,0,0,1,9.56,7.07c2,2.23,6.57,3.05,9.09,1.17a185.82,185.82,0,0,1,27-16.75c1.61.29,3.23.55,4.85.79,8.44,1.25,18.87,3.65,27.3,1.43a20.21,20.21,0,0,0,6.27-3s0,0,0,0c7.46,6.67,19.08,6.69,28.63,7.09l86.61,3.66C1437.54,257.17,1439.68,243.53,1431.25,242.08Zm-158-10.85c-1.15-.23-2.3-.48-3.44-.75,0-.34-.09-.66-.15-1l5.31.92Z"/><path class="cls-1" d="M1485.76,201.93c-16.27-3.4-32.21-5-46,6-.43.34-.86.7-1.3,1.07-2.2,1.86-4.43,3.86-7,5a20.66,20.66,0,0,1-5.7,1.44c-1.28.18-2.57.3-3.82.43-8,.84-14.89,2-21.27,7.28-5.62,4.64-.38,12.13,5.3,12.81l26.91,3.19c4,.48,7.5-3.79,7.5-7.5a6.83,6.83,0,0,0-1.75-4.73,37.3,37.3,0,0,0,6.82-4.33l.82-.65c.58-.24,1.16-.47,1.75-.68a83.63,83.63,0,0,1,35.76-4.6C1492.15,217.36,1494,203.66,1485.76,201.93Zm-75.63,19.54a7.24,7.24,0,0,0-2.62,3.26L1406,221Z"/><path class="cls-1" d="M1406,221l4.18.5a7.24,7.24,0,0,0-2.62,3.26Z"/><path class="cls-1" d="M1438.49,209c-2.2,1.86-4.43,3.86-7,5a20.66,20.66,0,0,1-5.7,1.44l2.49-1.38C1431.57,212.22,1435,210.51,1438.49,209Z"/><path class="cls-1" d="M1203.85,291.63a146.51,146.51,0,0,0-63.24,3.24,7.58,7.58,0,0,1-9.49-7.23,15.74,15.74,0,0,1,11.65-15.5c4.54-1.34,7.8,1.44,8.88,4.94a165.59,165.59,0,0,1,56.18.08C1217.34,278.79,1213.29,293.25,1203.85,291.63Z"/><path class="cls-1" d="M1149.69,229.45a70,70,0,0,1,21-.92c4,.4,7.5-3.73,7.5-7.5,0-4.39-3.45-7.1-7.5-7.5a83.45,83.45,0,0,0-25,1.45C1136.25,216.91,1140.25,231.37,1149.69,229.45Z"/><path class="cls-1" d="M1118.65,159.39l21.43,1.76c9.62.79,9.57-14.21,0-15l-21.43-1.76C1109,143.6,1109.09,158.61,1118.65,159.39Z"/><path class="cls-1" d="M1171.66,129.82a83.63,83.63,0,0,1,49.21-6.09c9.44,1.7,13.49-12.75,4-14.47a101.53,101.53,0,0,0-60.77,7.6c-3.72,1.69-4.55,7-2.69,10.27C1163.57,130.94,1168,131.48,1171.66,129.82Z"/><path class="cls-1" d="M1311.66,135.36a49.11,49.11,0,0,0-23.44,3.26c-3.76,1.51-6.4,5-5.24,9.23,1,3.57,5.45,6.76,9.23,5.24a39.33,39.33,0,0,1,19.45-2.73c4,.42,7.5-3.75,7.5-7.5C1319.16,138.45,1315.71,135.78,1311.66,135.36Z"/><path class="cls-1" d="M1115.58,116.93h-16.85c-9.65,0-9.67,15,0,15h16.85C1125.23,131.93,1125.25,116.93,1115.58,116.93Z"/><path class="cls-1" d="M974.65,67.58h9.19c3.92,0,7.68-3.44,7.5-7.5a7.63,7.63,0,0,0-7.5-7.5h-9.19c-3.93,0-7.68,3.45-7.5,7.5A7.62,7.62,0,0,0,974.65,67.58Z"/><path class="cls-1" d="M1039,43.07c9.65,0,9.66-15,0-15S1029.32,43.07,1039,43.07Z"/><path class="cls-1" d="M1559.84,131.94l27.56,3.18c4,.47,7.5-3.78,7.5-7.5,0-4.44-3.46-7-7.5-7.5l-27.56-3.18c-4-.46-7.5,3.78-7.5,7.5C1552.34,128.88,1555.79,131.47,1559.84,131.94Z"/><path class="cls-1" d="M1611,189.58c-8.31,11.95-21.21,18.76-35.48,20.75-16.92,2.35-33.63-2.2-49.76-6.86-9.27-2.67-5.31-17.14,4-14.46,18.58,5.36,46.06,13,62.65-.81l-13.45-6.57c-8.68-4.24-1.07-17.17,7.57-12.95l21.79,10.64C1611.73,181,1613.18,186.42,1611,189.58Z"/><path class="cls-1" d="M1598,217.87a7.4,7.4,0,0,1-1,3.78l-1.17,1.52a7.71,7.71,0,0,1-10.61,0l-1.53-1.53a7.46,7.46,0,0,1-1.93-3.31l-.27-2a7.41,7.41,0,0,1,1-3.79l1.18-1.52a7.7,7.7,0,0,1,10.6,0l1.54,1.53a7.53,7.53,0,0,1,1.92,3.31Z"/><path class="cls-1" d="M1484.77,182.48h13.79c9.65,0,9.67-15,0-15h-13.79C1475.12,167.48,1475.11,182.48,1484.77,182.48Z"/><path class="cls-1" d="M139.75,86c9.65,0,9.67-15,0-15S130.08,86,139.75,86Z"/><path class="cls-1" d="M810.73,188.61c9.65,0,9.67-15,0-15S801.06,188.61,810.73,188.61Z"/><path class="cls-1" d="M806.14,122.73c9.65,0,9.66-15,0-15S796.47,122.73,806.14,122.73Z"/><path class="cls-1" d="M826.05,231.82h-7.66c-3.92,0-7.68,3.45-7.5,7.5a7.63,7.63,0,0,0,7.5,7.5h7.66c3.92,0,7.68-3.45,7.5-7.5A7.63,7.63,0,0,0,826.05,231.82Z"/><path class="cls-1" d="M957.8,275.93H967c3.92,0,7.68-3.45,7.5-7.5a7.63,7.63,0,0,0-7.5-7.5H957.8c-3.93,0-7.69,3.45-7.5,7.5A7.63,7.63,0,0,0,957.8,275.93Z"/><path class="cls-1" d="M1106.39,288.18c9.65,0,9.67-15,0-15S1096.72,288.18,1106.39,288.18Z"/><path class="cls-1" d="M1178.39,337.2c9.65,0,9.67-15,0-15S1168.72,337.2,1178.39,337.2Z"/><path class="cls-1" d="M649.88,15.5c9.65,0,9.67-15,0-15S640.21,15.5,649.88,15.5Z"/><path class="cls-1" d="M12.62,118.22a46.38,46.38,0,0,1,28.4,5c8.5,4.58,16.08-8.37,7.57-13a59.85,59.85,0,0,0-36-7c-4,.51-7.5,3.08-7.5,7.5C5.12,114.38,8.57,118.73,12.62,118.22Z"/><path class="cls-1" d="M885.28,76.94c.39,1.79,1,3.35,2.05,3.57,1.7.36,2.75-3.24,5.61-3.57,2.27-.27,4.6,1.65,5.62,3.57.83,1.56.72,3,.51,5.62s-.34,4.4-1.53,6.13a14.56,14.56,0,0,1-5.11,4.08h0s-1.56,4.5-4.08,6.64c-3.9,3.3-10.44,1.28-11.24,1a16.08,16.08,0,0,1-7.66-5.62c-1-1.29-4.12-5.12-4.08-10.21,0-1.88,1-4.66,3.06-10.21a49.48,49.48,0,0,0,2-6.13c.6-2.43.41-2.7,1-5.62,1.08-5.15,1.94-5.63,1.53-7.15-.66-2.45-3.2-2.26-7.15-5.1-5.69-4.09-5-7.81-10.21-10.73-1.31-.74-3-1.43-7.66-2-8.57-1.12-20.36-2.67-32.17,3.58-2.38,1.25-4.48,2.88-8.68,6.12-7.43,5.75-12.08,9.34-15.32,15.32-2.83,5.22-1.08,5.78-4.09,12.26-3.72,8-7.47,9.45-10.72,14.81-3.78,6.21-2.83,11-2.56,27.06.46,26.29-1.93,22.56-.51,34.21,1,8.19,2.84,22,11.75,36.77a88.81,88.81,0,0,0,17.36,20.42c9.18,8.45,15.43,11.25,17.87,12.26,9.67,4,15.56,2.83,16.85,2.55A23.45,23.45,0,0,0,846,223c7-4.58,5.74-8.4,12.26-13.79,6.13-5.07,10.69-4.56,11.74-8.68.62-2.41-.87-2.84-2-8.68-1.33-6.62.16-8.17-1.53-12.77-1.08-2.91-2.57-4.71-4.6-7.15-3.19-3.84-7.9-9.49-12.25-8.68-3.07.58-2.62,3.74-7.15,7.15-1.18.9-7.8,5.64-14.3,3.07-3.11-1.24-6.6-4.31-7.15-8.68-.7-5.57,3.8-9.47,4.09-9.71,4-3.39,7.13-.84,10.72-4.08s2.12-7.6,6.13-9.7a12,12,0,0,1,5.62-1,16,16,0,0,1,5.61,1c6.8,2.45,8.23,8.2,14.81,11.74,5.94,3.19,7.39-.09,12.26,3.07s6.79,8.72,9.7,17.36c.3.9,1.23,4.53,3.06,11.74,3.1,12.18,3.43,13.64,3.07,15.83-.84,5.11-4.39,8-9.71,12.77-21.22,19-18.22,20.56-28.59,26.55-7.34,4.24-14.08,8.13-23.49,8.17-8.11,0-13.92-2.87-25.53-8.68-8.5-4.25-15.45-7.73-22.47-14.81-3.57-3.6-4.29-5.24-13.28-19.4-15.16-23.9-16.05-23.87-17.36-28.6-3.29-11.86,1.69-14.17,1-31.66-.82-21.67-8.61-22-7.66-36.76.78-12.1,6.09-12.67,24-45.45,12.17-22.26,11.71-25.64,18.39-29.62,9.47-5.64,14.07-1,37.27-8.17,8.07-2.49,10.83-4.07,16.34-3.57,8.57.77,15.75,5.83,22,10.21,6.53,4.6,7.57,6.88,13.79,9.7,4,1.83,5.85,1.9,7.66,4.09,3,3.57,2.36,8.55,1.53,14.81A61.16,61.16,0,0,1,885.28,76.94Z"/><path class="cls-1" d="M730.56,22.81c1.45,1.58-1.89,4.48-1,11.23.45,3.5,1.43,3.46,2,7.15.9,5.49-1,7.35-1,13.28s1.79,5.72,2,11.23c.32,7-2.59,8.19-4.08,16.85-1,5.88.23,5.86,0,17.88-.21,10.64-1.19,10.57-1,16.85.29,11,3.31,11.29,4.59,23a68.9,68.9,0,0,1-1.53,26c-1.9,7.07-4,9.51-4.09,16.34-.08,4.55.75,8.13,2,13.79,2.37,10.31,3.73,9.58,4.59,15.83.69,5,.29,9.78-.51,19.4-.37,4.52-.7,5.92-.51,9.19.22,3.67.8,4.77,0,6.13-.92,1.57-3.05,2.39-10.72,2.55-9.8.21-14.7.31-15.83-2-1-2.05,1.37-3.82,4.59-10.72,2-4.32,4.54-9.72,4.6-15.32.06-5.83-2.59-6.17-6.13-16.34-1.82-5.25-4.37-12.58-3.57-21.45.32-3.64,1.41-7.19,3.57-14.3,2.79-9.13,4-10.36,4.6-14.81.88-7.05-1.25-12.29-2.56-16.34-3.81-11.84-3.34-22.12-2.55-39.32.93-20.16,5.34-23,3.58-37.27-1.14-9.16-10.23-15.64-7.15-23,.65-1.56,1.63-2.59,3.57-4.6C716.06,25.81,728.1,20.11,730.56,22.81Z"/><path class="cls-1" d="M332.26,22.81c1.45,1.58-1.88,4.48-1,11.23.45,3.5,1.44,3.46,2,7.15.91,5.49-1,7.35-1,13.28s1.79,5.72,2,11.23c.33,7-2.59,8.19-4.08,16.85-1,5.88.24,5.86,0,17.88-.21,10.64-1.19,10.57-1,16.85.29,11,3.32,11.29,4.59,23a68.9,68.9,0,0,1-1.53,26c-1.9,7.07-3.95,9.51-4.08,16.34-.09,4.55.74,8.13,2,13.79,2.38,10.31,3.73,9.58,4.59,15.83.69,5,.29,9.78-.51,19.4-.37,4.52-.7,5.92-.51,9.19.22,3.67.8,4.77,0,6.13-.92,1.57-3,2.39-10.72,2.55-9.8.21-14.7.31-15.83-2-1-2.05,1.38-3.82,4.6-10.72,2-4.32,4.53-9.72,4.59-15.32.07-5.83-2.59-6.17-6.13-16.34-1.82-5.25-4.37-12.58-3.57-21.45.33-3.64,1.41-7.19,3.57-14.3,2.79-9.13,4.05-10.36,4.6-14.81.88-7.05-1.25-12.29-2.55-16.34-3.82-11.84-3.35-22.12-2.56-39.32.93-20.16,5.35-23,3.58-37.27-1.14-9.16-10.23-15.64-7.15-23,.65-1.56,1.64-2.59,3.57-4.6C317.76,25.81,329.8,20.11,332.26,22.81Z"/><path class="cls-1" d="M679.5,161.7c4,2.15,4.43,9,4.59,11.75.23,3.74-.65,4.3,0,7.15,1,4.17,3.41,5.36,5.11,8.68,2.45,4.78,1.27,9.95.51,13.27-1.73,7.55-7.35,11.73-18.9,20.43-24.94,18.8-28.94,22.11-37.78,24.51-5.71,1.55-14.34,3.77-19.92-.51-1.9-1.47-3-3.33-6.12-4.6-4.27-1.72-6.75-.08-10.73-.51-8.26-.88-13.63-9.64-14.3-10.72-4.12-6.72-.77-9.28-4.59-20.43a46.14,46.14,0,0,0-8.17-15.32c-4.47-5.37-6.73-5.24-10.73-11.23a33.46,33.46,0,0,1-5.1-11.74,33.89,33.89,0,0,1-.51-8.69c.45-12.81,2.62-16,2.55-24.51-.06-7.83-1.91-6.45-2-14.29-.12-7.24,1.45-12.75,4.59-23.49.82-2.78,1.4-4.57,5.62-16.85,4.64-13.52,7-20.31,7.66-22,5.41-13.15,8.25-19.84,14.81-25A48.62,48.62,0,0,1,600.35,30c5.68-1.73,7.93-1,12.25-3.58,5.2-3.08,4.45-5.61,9.19-7.66,5.82-2.5,11.82-.79,12.77-.51,3.36,1,3.1,2,6.64,3.07,5.74,1.74,7.59-.5,11.23,1,4,1.68,3.07,5,8.17,10.72,2.91,3.28,5.85,5.08,11.75,8.68,8.08,4.94,9,3.88,12.76,7.15,1.53,1.32,7.52,6.5,8.68,14.3.73,4.9-1.27,5.27-1.53,13.79-.22,7.53,1.29,9,0,12.25-2.09,5.23-8.32,10.11-13.27,8.68-4.32-1.25-6.08-6.82-7.15-10.21a28.12,28.12,0,0,1-1-10.72c.48-7.4,2.75-8.57,2.05-12.26-.94-4.93-5.93-7.71-12.26-11.23-11-6.1-14.1-3.41-21.44-9.19-4.8-3.78-5.73-6.73-9.71-7.15-3-.33-4.69,1.15-11.23,4.59-10.27,5.41-10.48,4.06-13.79,6.64-4.85,3.78-5,7.19-10.21,17.36-5.71,11.21-6.52,9.12-11.75,19.41a105.59,105.59,0,0,0-9.19,26c-2.09,8.8-3.1,13.27-1,14.81,4.15,3.06,14.22-10.23,26-7.15,1.08.28,6,1.55,7.66,5.62,1.6,3.81-.53,7.81-1,8.68-2,3.47-5,4.66-13.27,8.17-9,3.82-13.52,5.75-14.3,6.63-6,6.8-2,19.77,0,26.05,3.07,9.8,5.4,8.52,12.25,23.49,5.79,12.63,5.63,16.82,11.24,20.93,3.51,2.58,7.27,3.59,14.81,5.62,6.72,1.81,10.15,2.69,13.78,1.53,4.89-1.55,4.76-4.71,10.73-8.68,6.77-4.51,9.09-1.88,14.81-5.62,6.45-4.21,12-13.09,10.72-20.93-1-6.07-5.18-6.81-5.11-12.77.09-6.84,5.73-11.52,6.64-12.25S674.81,159.19,679.5,161.7Z"/><path class="cls-1" d="M1046.13,161.7c4,2.15,4.43,9,4.6,11.75.23,3.74-.65,4.3,0,7.15,1,4.17,3.41,5.36,5.11,8.68,2.45,4.78,1.27,9.95.51,13.27-1.73,7.55-7.35,11.73-18.9,20.43-25,18.8-28.94,22.11-37.78,24.51-5.71,1.55-14.34,3.77-19.92-.51-1.91-1.47-3-3.33-6.13-4.6-4.27-1.72-6.74-.08-10.72-.51-8.26-.88-13.63-9.64-14.3-10.72-4.12-6.72-.77-9.28-4.59-20.43a46.14,46.14,0,0,0-8.17-15.32c-4.47-5.37-6.73-5.24-10.73-11.23a33.46,33.46,0,0,1-5.1-11.74,33.89,33.89,0,0,1-.51-8.69c.45-12.81,2.62-16,2.55-24.51-.06-7.83-1.91-6.45-2-14.29-.12-7.24,1.45-12.75,4.59-23.49.82-2.78,1.4-4.57,5.62-16.85,4.64-13.52,7-20.31,7.66-22,5.41-13.15,8.25-19.84,14.81-25A48.62,48.62,0,0,1,967,30c5.68-1.73,7.93-1,12.25-3.58,5.2-3.08,4.44-5.61,9.19-7.66,5.82-2.5,11.82-.79,12.77-.51,3.36,1,3.09,2,6.64,3.07,5.74,1.74,7.59-.5,11.23,1,4,1.68,3.07,5,8.17,10.72,2.9,3.28,5.85,5.08,11.75,8.68,8.08,4.94,9,3.88,12.76,7.15,1.53,1.32,7.52,6.5,8.68,14.3.73,4.9-1.28,5.27-1.53,13.79-.22,7.53,1.29,9,0,12.25-2.1,5.23-8.32,10.11-13.28,8.68-4.31-1.25-6.07-6.82-7.15-10.21a28.08,28.08,0,0,1-1-10.72c.48-7.4,2.75-8.57,2-12.26-.94-4.93-5.93-7.71-12.26-11.23-11-6.1-14.1-3.41-21.45-9.19-4.79-3.78-5.73-6.73-9.7-7.15-3-.33-4.69,1.15-11.23,4.59-10.27,5.41-10.48,4.06-13.79,6.64-4.85,3.78-5,7.19-10.21,17.36-5.71,11.21-6.52,9.12-11.75,19.41a105.59,105.59,0,0,0-9.19,26c-2.09,8.8-3.1,13.27-1,14.81,4.15,3.06,14.22-10.23,26-7.15,1.08.28,5.95,1.55,7.66,5.62,1.6,3.81-.53,7.81-1,8.68-2,3.47-5,4.66-13.28,8.17-9,3.82-13.51,5.75-14.29,6.63-6,6.8-2,19.77,0,26.05,3.07,9.8,5.4,8.52,12.25,23.49,5.79,12.63,5.63,16.82,11.24,20.93C971,221,974.77,222,982.3,224c6.73,1.81,10.16,2.69,13.79,1.53,4.88-1.55,4.76-4.71,10.72-8.68,6.78-4.51,9.1-1.88,14.81-5.62,6.46-4.21,11.95-13.09,10.73-20.93-.95-6.07-5.18-6.81-5.11-12.77.08-6.84,5.73-11.52,6.64-12.25S1041.45,159.19,1046.13,161.7Z"/><path class="cls-1" d="M1372,161.7c4,2.15,4.43,9,4.59,11.75.23,3.74-.65,4.3,0,7.15,1,4.17,3.41,5.36,5.11,8.68,2.45,4.78,1.27,9.95.51,13.27-1.73,7.55-7.35,11.73-18.89,20.43-24.95,18.8-28.94,22.11-37.79,24.51-5.7,1.55-14.34,3.77-19.92-.51-1.9-1.47-3-3.33-6.12-4.6-4.27-1.72-6.74-.08-10.73-.51-8.26-.88-13.63-9.64-14.29-10.72-4.13-6.72-.78-9.28-4.6-20.43a46.14,46.14,0,0,0-8.17-15.32c-4.47-5.37-6.72-5.24-10.72-11.23a33.35,33.35,0,0,1-5.11-11.74,33.89,33.89,0,0,1-.51-8.69c.46-12.81,2.62-16,2.55-24.51-.06-7.83-1.91-6.45-2-14.29-.12-7.24,1.45-12.75,4.6-23.49.81-2.78,1.39-4.57,5.61-16.85,4.65-13.52,7-20.31,7.66-22,5.41-13.15,8.25-19.84,14.81-25a48.62,48.62,0,0,1,14.3-7.66c5.68-1.73,7.94-1,12.25-3.58,5.2-3.08,4.45-5.61,9.2-7.66,5.81-2.5,11.81-.79,12.76-.51,3.37,1,3.1,2,6.64,3.07,5.74,1.74,7.59-.5,11.23,1,4,1.68,3.07,5,8.17,10.72,2.91,3.28,5.86,5.08,11.75,8.68,8.08,4.94,9,3.88,12.76,7.15,1.53,1.32,7.52,6.5,8.69,14.3.73,4.9-1.28,5.27-1.54,13.79-.22,7.53,1.29,9,0,12.25-2.09,5.23-8.32,10.11-13.27,8.68-4.32-1.25-6.08-6.82-7.15-10.21a28.08,28.08,0,0,1-1-10.72c.47-7.4,2.74-8.57,2-12.26-.94-4.93-5.93-7.71-12.26-11.23-11-6.1-14.1-3.41-21.44-9.19-4.79-3.78-5.73-6.73-9.7-7.15-3-.33-4.7,1.15-11.24,4.59-10.26,5.41-10.48,4.06-13.79,6.64-4.85,3.78-5,7.19-10.21,17.36-5.7,11.21-6.51,9.12-11.74,19.41a105.69,105.69,0,0,0-9.2,26c-2.09,8.8-3.1,13.27-1,14.81,4.15,3.06,14.22-10.23,26-7.15,1.07.28,6,1.55,7.66,5.62,1.6,3.81-.53,7.81-1,8.68-2,3.47-5,4.66-13.27,8.17-9,3.82-13.51,5.75-14.3,6.63-6,6.8-2,19.77,0,26.05,3.07,9.8,5.4,8.52,12.26,23.49,5.78,12.63,5.62,16.82,11.23,20.93,3.51,2.58,7.28,3.59,14.81,5.62,6.72,1.81,10.15,2.69,13.79,1.53,4.88-1.55,4.75-4.71,10.72-8.68,6.77-4.51,9.09-1.88,14.81-5.62,6.46-4.21,12-13.09,10.72-20.93-1-6.07-5.18-6.81-5.11-12.77.09-6.84,5.74-11.52,6.64-12.25S1367.34,159.19,1372,161.7Z"/><path class="cls-1" d="M1081.88,247c2.37,2.26,6,2.53,13,3.06a109.21,109.21,0,0,0,12.26,0h0c-1.54-15.81-1.54-19.15-1.54-19.15a97.8,97.8,0,0,1,2.3-19.91c1.82-8.28,2.88-8,3.83-14.55a60.21,60.21,0,0,0,0-17.62,90.82,90.82,0,0,0-3.06-12.26c-1.94-6.6-2.89-8.22-3.07-12.25a53,53,0,0,1,.77-9.19c.65-5,1.09-6.12,1.53-9.2.9-6.3-.1-7.53,0-16.85s1.09-8,.77-13.78c-.44-7.94-2.25-10-1.53-16.09a33.26,33.26,0,0,1,3.06-10,51.14,51.14,0,0,1,12.25-18.38c2.81-2.62,10.47-9.55,22.22-11.49,2.88-.47,10.6,1,26,3.83,8,1.49,13.17,2.63,16.09,6.9a29.51,29.51,0,0,1,3.06,6.89,35.5,35.5,0,0,1,1.53,8.42c1,12.55,6.18,15.14,5.36,25.28a37.64,37.64,0,0,1-3.06,11.49c-2.85,7-4.78,6.94-6.89,12.26-3,7.55-.06,10.15-2.3,20.68-1.26,5.91-2.15,4.89-4.6,13a76.18,76.18,0,0,0-3.83,24.51c0,1.26,1,7,3.07,18.38,2.6,14.7,3.3,17.58,5.36,21.45,1.76,3.32,2.16,2.93,6.89,10.72,4.43,7.3,7.23,12,6.13,13s-5.52-1.92-5.36-2.3c.25-.59,12,6.56,26,4.6,2.7-.38,7.58-1.11,8.42-3.83s-2.66-4.94-6.89-10c-6.86-8.15-9.86-16.4-12.25-23-.59-1.59-.92-2.68-3.83-15.31-6-26-6.16-28.22-6.13-30.64.13-9.43,3-16.25,6.89-25.28,6.87-16.09,12.94-18.72,13.79-30.64a57.84,57.84,0,0,0-1.53-16.08c-2-8.49-4-8.81-5.36-15.32-2.7-12.8,3.89-17.36,0-23.75-3.28-5.37-8.23-2.6-17.62-9.95-7.42-5.81-6-8.82-11.49-11.49-7.75-3.75-11.65,1.64-23-.77-9.94-2.11-10-6.92-16.85-6.89-6.65,0-12.18,5.38-23,16.08C1107,54,1108.67,55.84,1101,60.85s-12.14,5.08-15.32,10.72c-3.73,6.62-2,14.48-3.07,14.56s-2.46-6.85-2.29-6.9,3.52,8.36,4.59,16.86c1.55,12.35-2.85,15.68-3.06,27.57-.26,14.78,6.49,13.21,6.89,28.34.42,15.66-6.67,23-1.53,35.23,1.75,4.19,3.12,4.61,3.83,8.43,1.53,8.15-3.51,12.47-7.66,23.74C1081.71,224,1075.49,240.91,1081.88,247Z"/><path class="cls-1" d="M1407.45,247c2.38,2.26,6,2.53,13,3.06a109.21,109.21,0,0,0,12.26,0h0c-1.54-15.81-1.53-19.15-1.53-19.15a96.23,96.23,0,0,1,2.3-19.91c1.81-8.28,2.87-8,3.83-14.55a61,61,0,0,0,0-17.62,91.07,91.07,0,0,0-3.07-12.26c-1.94-6.6-2.88-8.22-3.06-12.25a52.74,52.74,0,0,1,.76-9.19c.65-5,1.1-6.12,1.54-9.2.9-6.3-.11-7.53,0-16.85s1.09-8,.76-13.78c-.44-7.94-2.25-10-1.53-16.09a33.26,33.26,0,0,1,3.06-10,51.2,51.2,0,0,1,12.26-18.38c2.81-2.62,10.46-9.55,22.21-11.49,2.88-.47,10.6,1,26,3.83,8,1.49,13.17,2.63,16.09,6.9a29.51,29.51,0,0,1,3.06,6.89A35.69,35.69,0,0,1,1517,75.4c1,12.55,6.17,15.14,5.36,25.28a37.61,37.61,0,0,1-3.07,11.49c-2.85,7-4.78,6.94-6.89,12.26-3,7.55-.06,10.15-2.3,20.68-1.26,5.91-2.15,4.89-4.59,13a76.18,76.18,0,0,0-3.83,24.51c0,1.26,1,7,3.06,18.38,2.6,14.7,3.31,17.58,5.36,21.45,1.77,3.32,2.17,2.93,6.9,10.72,4.43,7.3,7.23,12,6.12,13s-5.52-1.92-5.36-2.3c.26-.59,12,6.56,26,4.6,2.7-.38,7.58-1.11,8.43-3.83s-2.67-4.94-6.89-10c-6.87-8.15-9.87-16.4-12.26-23-.58-1.59-.91-2.68-3.83-15.31-6-26-6.16-28.22-6.13-30.64.13-9.43,3-16.25,6.9-25.28,6.86-16.09,12.94-18.72,13.78-30.64a57.45,57.45,0,0,0-1.53-16.08c-2-8.49-4-8.81-5.36-15.32-2.7-12.8,3.9-17.36,0-23.75-3.28-5.37-8.23-2.6-17.62-9.95-7.42-5.81-6-8.82-11.49-11.49-7.74-3.75-11.65,1.64-23-.77-9.94-2.11-10-6.92-16.86-6.89-6.64,0-12.18,5.38-23,16.08-12.45,12.34-10.75,14.14-18.39,19.15s-12.14,5.08-15.32,10.72c-3.72,6.62-2,14.48-3.06,14.56s-2.46-6.85-2.3-6.9,3.53,8.36,4.6,16.86c1.55,12.35-2.86,15.68-3.07,27.57-.26,14.78,6.5,13.21,6.9,28.34.41,15.66-6.68,23-1.53,35.23,1.75,4.19,3.11,4.61,3.82,8.43,1.53,8.15-3.51,12.47-7.65,23.74C1407.28,224,1401.07,240.91,1407.45,247Z"/><path class="cls-1" d="M499,230.89c-6.75-8.63-9.82-16.39-14.56-28.34-5.36-13.53-4.13-15.19-10-28.34-4.06-9.19-6.1-13.78-10-18.38-6.2-7.39-10.5-8.14-14.56-16.09-2.43-4.77-1.24-5.21-4.59-12.25-3.56-7.47-6.27-9.87-5.36-13s4.36-4.11,9.19-6.13c11.15-4.66,22-9.18,27.57-17.62,3.42-5.13,1.67-6.86,6.9-15.32,3.57-5.77,5.22-6.33,6.12-10,1.64-6.59-1.85-12.76-4.59-17.62-1.51-2.68-2-2.94-13-15.32-7.52-8.46-8.64-9.86-11.49-10.72-6-1.84-8.1,2.28-14.56.76-7.73-1.81-8.08-8.51-14.55-9.19-4.4-.46-5.73,2.48-14.55,6.9-10.39,5.19-11.39,2.55-19.15,6.89-6.26,3.5-10.07,7.72-17.62,16.08a116.53,116.53,0,0,0-9.19,11.49c-4.87,7-7.43,10.68-8.43,15.32-1.61,7.54,2.27,11.3,4.6,19.92,4.74,17.58-5.93,22.17-3.83,45.19,1.2,13.14,4.77,12.63,4.6,24.51-.19,12.47-4.15,15.43-3.07,27.57.88,9.83,3.68,10.11,3.83,19.92.07,4.41.2,12.35-3.83,20.68-4.36,9-10.61,12.33-9.19,15.32.85,1.79,4.16,2,10.72,2.3,9,.43,13.52.64,16.09-1.54,3.08-2.6,3.33-8.12,3.83-19.14.14-3.07.17-6.08,0-13-.27-11.09-.65-15.42-.77-19.91-.36-14,2.21-14,2.3-26.81.07-9.3-1.26-13.62-4.59-39.83a74.7,74.7,0,0,1-.18-15.45c.08-.69.18-1.4.18-1.4a70.81,70.81,0,0,1,2.29-10.72,109.58,109.58,0,0,1,3.83-10.73,36.69,36.69,0,0,1-2.29-12.25c.08-4,1.32-9,3.06-9.19,1.41-.13,1.93,3.08,5.36,7.66,3.56,4.74,5.11,4.1,7.66,7.66,3.94,5.47,1.4,8.59,4.6,14.55,3.07,5.72,6.63,5.12,10.72,10,6,7,2,12.58,5.36,24.51,3.54,12.65,9.31,11.25,17.62,29.1,4.4,9.46,2.71,9.7,7.66,20.68,5.74,12.75,7.64,11.57,14.55,25.28,6.84,13.56,8,20.74,14.55,31.41l6.13,10s24.57,5,26.81,0C512.43,243.56,506.34,240.3,499,230.89ZM433.37,94.3c-1.35-.12-2.05-1.24-4.09-4.09-6.92-9.68-7.18-8.45-9.19-12.25-3.18-6-1.23-6.64-4.08-13.28-4.33-10.06-10.19-11.8-9.19-16.34.6-2.78,4.15-4.75,11.23-8.68,5.05-2.81,7.58-4.21,10.72-4.6,5.62-.69,6.65,1.95,15.83,3.58,8.67,1.54,10.3-.36,14.3,2,5.61,3.37,7.24,10,7.66,11.75,1.38,5.62,0,10.16-2,16.85-1.38,4.51-2.06,6.76-4.09,8.68-1.75,1.66-2.93,1.7-10.72,5.1a73,73,0,0,0-6.64,3.07C437.16,90,436.18,94.53,433.37,94.3Z"/><path class="cls-1" d="M279.93,34c-2.87-1.37-5.62,2.63-12.37,6.13-10.92,5.67-16.29,1.74-20.38,6.13s-1.81,11.33,1.45,28.34c5,26.1,7.45,39.34,4.37,48.25-4.3,12.47-11.44,10.83-15.29,25.28-1.3,4.88-1.84,11.94-2.91,26-1,13.3-.62,15.44-2.91,18.39-5,6.39-12,3.06-18.93,10.72-3.79,4.22-2.25,5.91-6.55,10.72-2.11,2.37-7.86,8.81-16,8.43-8.62-.4-13.87-8.14-14.56-9.19-2-3-2.56-5.61-4.37-19.92-.73-5.8-1.21-10-1.6-12.93v-.33c-.19-9.2-4.18-10.55-4.21-21.25,0-4.17.89-8.11,2.69-16,3.29-14.37,5.59-16.93,4.52-23.67-.34-2.14-1.32-7.84-5.58-11.91-2.56-2.45-7.58-5.52-11.26-4.06-9.5,3.76-8.84,37.12-6.54,56.51,1.19,10.09,3,17.89-.93,25.36-3.4,6.44-7.11,5.17-12.05,13.2-5.55,9-3,14.19-8.79,19.46a17.81,17.81,0,0,1-12.86,4.45,19.2,19.2,0,0,1-11.49-4.89,23.47,23.47,0,0,1-6.8-10.68C94.33,199,97.89,195,98.85,186.27c.61-5.48-.38-7.68-6.7-30.43-6-21.58-4.37-17-7.7-28.36-6.17-21.15-9.26-31.72-12.37-36.94-4.88-8.21-8.85-11.36-11-20.28-1.16-4.87-.68-6.85-2.62-15.42-1.83-8.09-2.81-12.2-5.76-15.45-2.61-2.88-5.92-3.8-12.44-5.53C30.92,31.38,22.6,29.18,20.52,33c-2,3.67,2.68,10.93,3.17,11.68,4.53,7.05,8.93,5.62,12.57,11.77,2.77,4.68.49,6.38,3.58,16.05A67.87,67.87,0,0,0,46.1,87c6.08,10.22,9.45,8.3,12.75,15.31,3.94,8.37-.48,12,3.39,26.86,1.09,4.2,1.23,3.11,3.89,11.48,4.28,13.42,3.42,14.69,6.12,22.52,5.39,15.67,11.44,18.23,9.93,25.06-1.15,5.17-5.05,5.63-6,12.42a22.88,22.88,0,0,0,1.49,11.24c3.26,8.22,8.37,6.91,14.44,15.75,4.55,6.62,3.36,9.82,9.34,17.14,4.37,5.34,6.78,5.82,7.86,5.9,3.06.24,3.73-2.75,9-7,3.81-3,7.57-6,12.41-6.12,5.83-.1,8.16,4.09,10.81,2.4,2.29-1.47,1.19-5,3.15-14.32,1-4.76,1.64-7.81,3.32-10.79a12.71,12.71,0,0,1,4.76-5c.07,4.22,1.24,6.6,2.67,8,2.67,2.62,5.86,1.52,9.46,5.36,1.67,1.79,1.81,2.91,5.1,11.49,3.73,9.76,4.51,10.85,5.82,11.49,2.65,1.31,4.16-.83,11.65-3.06,9.22-2.76,11.94-1,17.47-4.6,2.1-1.36,1.65-1.58,5.82-5.36a100,100,0,0,1,15.29-11.49c10.38-6.15,12.6-3.69,16.74-8.42,3.34-3.83,4.28-8.18,5.82-15.32,2.13-9.85.11-10.83,2.18-18.39,1.9-6.89,5.24-12.13,8.74-17.61,3.9-6.11,5.36-6.84,7.28-11.49,1.51-3.65,2.16-6.93,2.91-13.79,1.21-11,.65-12.7,1.46-21.45,1.33-14.39,3.4-15.56,2.91-25.27-.23-4.64-.71-4.56-1.46-13.79-.78-9.77-1.15-14.71,0-17.62,2.87-7.21,8.76-6.94,10.19-13.78C283.71,40.64,282.66,35.35,279.93,34Z"/><path d="M45.35,305.06l4.2-.37a9.26,9.26,0,0,0,1.39,4.14,7.61,7.61,0,0,0,3.38,2.62,13,13,0,0,0,5.17,1,12.48,12.48,0,0,0,4.5-.75,6.3,6.3,0,0,0,2.9-2.08,4.85,4.85,0,0,0,1-2.88,4.34,4.34,0,0,0-.92-2.77,6.88,6.88,0,0,0-3-2,58.29,58.29,0,0,0-6-1.64,30.32,30.32,0,0,1-6.49-2.1,9.13,9.13,0,0,1-3.59-3.13,7.68,7.68,0,0,1-1.18-4.19,8.55,8.55,0,0,1,1.44-4.76,9,9,0,0,1,4.23-3.37,16.07,16.07,0,0,1,6.17-1.14,17,17,0,0,1,6.6,1.2,9.49,9.49,0,0,1,4.39,3.55,10.08,10.08,0,0,1,1.65,5.3l-4.26.32a6.91,6.91,0,0,0-2.33-4.82c-1.33-1.09-3.28-1.63-5.87-1.63s-4.65.49-5.88,1.48a4.43,4.43,0,0,0-1.85,3.57,3.79,3.79,0,0,0,1.31,3q1.27,1.17,6.71,2.4a44.75,44.75,0,0,1,7.45,2.15,10.14,10.14,0,0,1,4.33,3.43,8.29,8.29,0,0,1,1.4,4.78,9.17,9.17,0,0,1-1.53,5.06,10.13,10.13,0,0,1-4.42,3.7,15.38,15.38,0,0,1-6.48,1.32A19.51,19.51,0,0,1,52,315.11a10.74,10.74,0,0,1-4.84-4A11.34,11.34,0,0,1,45.35,305.06Z"/><path d="M78.31,315.86V282.22h24.32v4H82.76v10.3h18.61v3.95H82.76v11.45h20.65v4Z"/><path d="M109.38,315.86V282.22h4.45v29.67H130.4v4Z"/><path d="M135.79,315.86V282.22h24.33v4H140.25v10.3h18.61v3.95H140.25v11.45H160.9v4Z"/><path d="M191.06,304.07l4.45,1.12a15,15,0,0,1-5,8.37,13.87,13.87,0,0,1-8.89,2.88,16,16,0,0,1-8.85-2.22,13.83,13.83,0,0,1-5.19-6.41,23,23,0,0,1-1.77-9,20,20,0,0,1,2-9.17,13.74,13.74,0,0,1,5.72-5.94,16.63,16.63,0,0,1,8.16-2,13.77,13.77,0,0,1,8.49,2.57,13.33,13.33,0,0,1,4.79,7.23l-4.38,1a10.38,10.38,0,0,0-3.4-5.35,9.07,9.07,0,0,0-5.59-1.67,10.89,10.89,0,0,0-6.49,1.86,9.84,9.84,0,0,0-3.66,5,21.75,21.75,0,0,0,.2,13.95A9.28,9.28,0,0,0,175.5,311a10.86,10.86,0,0,0,5.71,1.59,9.59,9.59,0,0,0,6.34-2.16A11.13,11.13,0,0,0,191.06,304.07Z"/><path d="M209.55,315.86V286.19H198.47v-4h26.67v4H214v29.67Z"/><path d="M229.79,315.86V282.22h24.33v4H234.25v10.3h18.61v3.95H234.25v11.45H254.9v4Z"/><path d="M261.05,315.86V282.22h11.59a28.22,28.22,0,0,1,6,.48,11.46,11.46,0,0,1,4.93,2.41,13.69,13.69,0,0,1,4,5.75,22.55,22.55,0,0,1,1.32,8,23.36,23.36,0,0,1-.9,6.79,16.53,16.53,0,0,1-2.29,4.9,11.39,11.39,0,0,1-7.08,4.74,23.09,23.09,0,0,1-5.41.57Zm4.45-4h7.19a17.23,17.23,0,0,0,5.22-.62,7.45,7.45,0,0,0,3-1.74,10.67,10.67,0,0,0,2.46-4.26,20.74,20.74,0,0,0,.89-6.48q0-5.28-1.74-8.11a8.7,8.7,0,0,0-4.21-3.8,17.34,17.34,0,0,0-5.76-.69H265.5Z"/><path d="M308.12,315.86V282.22H323a19.7,19.7,0,0,1,6.84.91,7.48,7.48,0,0,1,3.74,3.2,9.58,9.58,0,0,1,1.4,5.07,8.5,8.5,0,0,1-2.32,6c-1.55,1.63-3.93,2.67-7.16,3.12a11.25,11.25,0,0,1,2.68,1.67,23.31,23.31,0,0,1,3.7,4.48l5.85,9.15h-5.6l-4.45-7q-2-3-3.21-4.63a10.47,10.47,0,0,0-2.26-2.25,6.78,6.78,0,0,0-2-.9,14,14,0,0,0-2.47-.16h-5.17v14.94Zm4.45-18.79h9.57a14.41,14.41,0,0,0,4.78-.63,5.09,5.09,0,0,0,2.61-2,5.45,5.45,0,0,0,.9-3,5,5,0,0,0-1.74-3.92c-1.15-1-3-1.54-5.47-1.54H312.57Z"/><path d="M340.64,299.48q0-8.39,4.5-13.12a15.29,15.29,0,0,1,11.61-4.74,16.16,16.16,0,0,1,8.4,2.23,14.52,14.52,0,0,1,5.7,6.21,20.11,20.11,0,0,1,2,9,19.75,19.75,0,0,1-2.06,9.15,14.08,14.08,0,0,1-5.85,6.12,16.69,16.69,0,0,1-8.17,2.08,15.89,15.89,0,0,1-8.49-2.3,14.73,14.73,0,0,1-5.67-6.26A18.94,18.94,0,0,1,340.64,299.48Zm4.59.07q0,6.07,3.27,9.58a11.4,11.4,0,0,0,16.48,0q3.24-3.52,3.24-10a17.39,17.39,0,0,0-1.38-7.18,10.71,10.71,0,0,0-4.07-4.75,11,11,0,0,0-6-1.68,11.38,11.38,0,0,0-8.13,3.24Q345.24,292,345.23,299.55Z"/><path d="M378.41,315.86V282.22h6.7l8,23.82c.73,2.22,1.27,3.88,1.6,5,.39-1.22,1-3,1.79-5.39l8.06-23.41h6v33.64h-4.29V287.71l-9.78,28.15h-4l-9.73-28.64v28.64Z"/><path d="M414,315.86l12.92-33.64h4.79l13.77,33.64h-5.07l-3.92-10.19H422.43l-3.69,10.19Zm9.71-13.81h11.4l-3.51-9.32c-1.07-2.83-1.87-5.15-2.39-7a43.17,43.17,0,0,1-1.81,6.43Z"/><path d="M449,315.86V282.22h4.56l17.67,26.42V282.22h4.27v33.64H471l-17.68-26.43v26.43Z"/><path d="M491.55,315.86V286.19H480.47v-4h26.67v4H496v29.67Z"/><path d="M512.46,315.86V282.22h4.45v33.64Z"/><path d="M548.77,304.07l4.45,1.12a15,15,0,0,1-5,8.37,13.87,13.87,0,0,1-8.89,2.88,16,16,0,0,1-8.85-2.22,13.83,13.83,0,0,1-5.19-6.41,23,23,0,0,1-1.77-9,19.83,19.83,0,0,1,2-9.17,13.74,13.74,0,0,1,5.72-5.94,16.63,16.63,0,0,1,8.16-2,13.77,13.77,0,0,1,8.49,2.57,13.33,13.33,0,0,1,4.79,7.23l-4.38,1a10.38,10.38,0,0,0-3.4-5.35,9.08,9.08,0,0,0-5.6-1.67,10.88,10.88,0,0,0-6.48,1.86,9.78,9.78,0,0,0-3.66,5,21.75,21.75,0,0,0,.2,13.95,9.28,9.28,0,0,0,3.89,4.78,10.86,10.86,0,0,0,5.71,1.59,9.55,9.55,0,0,0,6.33-2.16A11.08,11.08,0,0,0,548.77,304.07Z"/><path d="M587.5,302.67v-3.95l14.26,0v12.48a25.15,25.15,0,0,1-6.77,3.94,20.12,20.12,0,0,1-7.16,1.32,19.16,19.16,0,0,1-9-2.12,14.13,14.13,0,0,1-6.12-6.14,19.31,19.31,0,0,1-2.06-9,20.84,20.84,0,0,1,2.05-9.17,13.71,13.71,0,0,1,5.91-6.32,18.48,18.48,0,0,1,8.88-2.06,17.59,17.59,0,0,1,6.6,1.18,10.91,10.91,0,0,1,4.62,3.29,14.6,14.6,0,0,1,2.55,5.51l-4,1.1a12.37,12.37,0,0,0-1.88-4,7.72,7.72,0,0,0-3.21-2.35,11.77,11.77,0,0,0-4.64-.88,13.6,13.6,0,0,0-5.27.93,9.83,9.83,0,0,0-3.6,2.44,11.76,11.76,0,0,0-2.12,3.33,17.52,17.52,0,0,0-1.28,6.77,16.27,16.27,0,0,0,1.55,7.52,9.9,9.9,0,0,0,4.5,4.5,14,14,0,0,0,6.29,1.47,15,15,0,0,0,5.65-1.11,14.68,14.68,0,0,0,4.18-2.38v-6.26Z"/><path d="M604.62,315.86l12.92-33.64h4.8l13.77,33.64H631l-3.93-10.19H613.05l-3.7,10.19Zm9.71-13.81h11.41l-3.51-9.32c-1.08-2.83-1.87-5.15-2.39-7a43.17,43.17,0,0,1-1.81,6.43Z"/><path d="M645.66,315.86V301.61l-13-19.39h5.42l6.63,10.14q1.83,2.85,3.42,5.7,1.51-2.64,3.67-5.95l6.52-9.89h5.18l-13.42,19.39v14.25Z"/><path d="M679.74,315.86V282.22h12.69a31.21,31.21,0,0,1,5.12.32,10.25,10.25,0,0,1,4.15,1.57,8.3,8.3,0,0,1,2.7,3.25,11,11,0,0,1-1.71,11.85q-2.73,3-9.87,3h-8.63v13.67Zm4.45-17.64h8.7c2.87,0,4.92-.54,6.12-1.61a5.72,5.72,0,0,0,1.82-4.52,6.12,6.12,0,0,0-1.07-3.62,5,5,0,0,0-2.81-2,18.94,18.94,0,0,0-4.15-.3h-8.61Z"/><path d="M709.73,299.48q0-8.39,4.5-13.12a15.29,15.29,0,0,1,11.61-4.74,16.13,16.13,0,0,1,8.4,2.23,14.4,14.4,0,0,1,5.7,6.21,20.11,20.11,0,0,1,2,9,19.76,19.76,0,0,1-2.07,9.15,14.08,14.08,0,0,1-5.85,6.12,16.69,16.69,0,0,1-8.17,2.08,15.89,15.89,0,0,1-8.49-2.3,14.73,14.73,0,0,1-5.67-6.26A18.94,18.94,0,0,1,709.73,299.48Zm4.59.07q0,6.07,3.27,9.58a11.4,11.4,0,0,0,16.48,0q3.24-3.52,3.25-10a17.38,17.38,0,0,0-1.39-7.18,10.75,10.75,0,0,0-4.06-4.75,11.09,11.09,0,0,0-6-1.68,11.38,11.38,0,0,0-8.13,3.24Q714.33,292,714.32,299.55Z"/><path d="M747.74,315.86V282.22h24.32v4H752.19v10.3H770.8v3.95H752.19v11.45h20.65v4Z"/><path d="M787.55,315.86V286.19H776.47v-4h26.66v4H792v29.67Z"/><path d="M807.77,315.86V282.22h14.92a19.7,19.7,0,0,1,6.84.91,7.48,7.48,0,0,1,3.74,3.2,9.58,9.58,0,0,1,1.4,5.07,8.5,8.5,0,0,1-2.32,6c-1.55,1.63-3.93,2.67-7.16,3.12a11.25,11.25,0,0,1,2.68,1.67,23.68,23.68,0,0,1,3.7,4.48l5.85,9.15h-5.6l-4.45-7q-1.95-3-3.22-4.63A10.25,10.25,0,0,0,821.9,302a6.78,6.78,0,0,0-2-.9,14,14,0,0,0-2.47-.16h-5.17v14.94Zm4.45-18.79h9.57a14.41,14.41,0,0,0,4.78-.63,5.13,5.13,0,0,0,2.61-2,5.45,5.45,0,0,0,.9-3,5,5,0,0,0-1.74-3.92c-1.15-1-3-1.54-5.47-1.54H812.22Z"/><path d="M850.27,315.86V301.61l-13-19.39h5.41l6.63,10.14q1.85,2.85,3.42,5.7,1.51-2.64,3.68-5.95l6.51-9.89h5.19l-13.43,19.39v14.25Z"/><path d="M1334.12,315.86H1330V289.54a21,21,0,0,1-3.91,2.85,26.83,26.83,0,0,1-4.35,2.13v-4a25,25,0,0,0,6.06-3.95,15.37,15.37,0,0,0,3.67-4.5h2.66Z"/><path d="M1351.06,297.62a7.79,7.79,0,0,1-3.81-2.69,7,7,0,0,1-1.24-4.17,8.18,8.18,0,0,1,2.64-6.18,11.12,11.12,0,0,1,14.12.06,8.28,8.28,0,0,1,2.68,6.23,6.89,6.89,0,0,1-1.23,4.08,7.79,7.79,0,0,1-3.73,2.67,8.59,8.59,0,0,1,6.34,8.63,9.69,9.69,0,0,1-3,7.25,12.43,12.43,0,0,1-16.07,0,9.84,9.84,0,0,1-3-7.36,8.87,8.87,0,0,1,1.66-5.49A8.29,8.29,0,0,1,1351.06,297.62Zm-2.16,8.54a7.51,7.51,0,0,0,.84,3.42,5.89,5.89,0,0,0,2.49,2.55,7.23,7.23,0,0,0,3.56.91,6.68,6.68,0,0,0,4.89-1.9,6.56,6.56,0,0,0,1.93-4.85,6.65,6.65,0,0,0-2-4.93,6.8,6.8,0,0,0-5-1.95,6.58,6.58,0,0,0-6.75,6.75Zm1.34-15.54a5.25,5.25,0,0,0,1.53,3.9,5.47,5.47,0,0,0,4,1.52,5.35,5.35,0,0,0,3.91-1.51,5,5,0,0,0,1.52-3.68,5.13,5.13,0,0,0-1.57-3.82,5.77,5.77,0,0,0-7.83,0A4.88,4.88,0,0,0,1350.24,290.62Z"/><path d="M1371.46,308.08l4-.36a6.92,6.92,0,0,0,1.93,4.06A5.31,5.31,0,0,0,1381,313a6.32,6.32,0,0,0,3.34-.87,7.07,7.07,0,0,0,2.35-2.33,13.58,13.58,0,0,0,1.54-3.94,20.83,20.83,0,0,0,.62-5c0-.19,0-.46,0-.83a9.49,9.49,0,0,1-3.39,3.2,9.19,9.19,0,0,1-4.65,1.23,9.37,9.37,0,0,1-7.06-3,11.08,11.08,0,0,1-2.9-8,11.36,11.36,0,0,1,3-8.24,10.08,10.08,0,0,1,7.56-3.12,10.76,10.76,0,0,1,6,1.77,11.09,11.09,0,0,1,4.14,5q1.41,3.27,1.41,9.46a30.69,30.69,0,0,1-1.4,10.27,12.09,12.09,0,0,1-4.17,5.82,10.77,10.77,0,0,1-6.48,2,8.89,8.89,0,0,1-9.46-8.36Zm16.92-14.84a8,8,0,0,0-1.9-5.65,5.94,5.94,0,0,0-4.55-2.09,6.29,6.29,0,0,0-4.8,2.25,8.34,8.34,0,0,0-2,5.83,7.22,7.22,0,0,0,1.94,5.22,6.38,6.38,0,0,0,4.78,2,6.12,6.12,0,0,0,4.72-2A7.91,7.91,0,0,0,1388.38,293.24Z"/><path d="M1397.6,308.08l4-.36a6.92,6.92,0,0,0,1.93,4.06,5.31,5.31,0,0,0,3.65,1.26,6.32,6.32,0,0,0,3.34-.87,7.07,7.07,0,0,0,2.35-2.33,13.58,13.58,0,0,0,1.54-3.94,20.83,20.83,0,0,0,.62-5c0-.19,0-.46,0-.83a9.49,9.49,0,0,1-3.39,3.2,9.19,9.19,0,0,1-4.65,1.23,9.41,9.41,0,0,1-7.07-3,11.12,11.12,0,0,1-2.89-8,11.36,11.36,0,0,1,3-8.24,10.08,10.08,0,0,1,7.56-3.12,10.76,10.76,0,0,1,6,1.77,11.09,11.09,0,0,1,4.14,5q1.41,3.27,1.41,9.46a30.69,30.69,0,0,1-1.4,10.27,12.09,12.09,0,0,1-4.17,5.82,10.77,10.77,0,0,1-6.48,2,8.89,8.89,0,0,1-9.46-8.36Zm16.92-14.84a8,8,0,0,0-1.9-5.65,5.94,5.94,0,0,0-4.55-2.09,6.29,6.29,0,0,0-4.8,2.25,8.34,8.34,0,0,0-2,5.83,7.22,7.22,0,0,0,1.94,5.22,6.38,6.38,0,0,0,4.78,2,6.12,6.12,0,0,0,4.72-2A7.91,7.91,0,0,0,1414.52,293.24Z"/><path d="M1435.72,305.77v-4.16h12.69v4.16Z"/><path d="M1480.45,315.86h-4.13V289.54a21.66,21.66,0,0,1-3.91,2.85,27.65,27.65,0,0,1-4.35,2.13v-4a24.71,24.71,0,0,0,6-3.95,15.42,15.42,0,0,0,3.68-4.5h2.66Z"/><path d="M1491.65,308.08l4-.36a6.86,6.86,0,0,0,1.93,4.06,5.28,5.28,0,0,0,3.65,1.26,6.29,6.29,0,0,0,3.33-.87,7.2,7.2,0,0,0,2.36-2.33,13.59,13.59,0,0,0,1.53-3.94,20.34,20.34,0,0,0,.62-5c0-.19,0-.46,0-.83a9.37,9.37,0,0,1-3.38,3.2,9.22,9.22,0,0,1-4.65,1.23,9.39,9.39,0,0,1-7.07-3,11.08,11.08,0,0,1-2.89-8,11.32,11.32,0,0,1,3-8.24,10.08,10.08,0,0,1,7.56-3.12,10.76,10.76,0,0,1,6,1.77,11.07,11.07,0,0,1,4.13,5q1.41,3.27,1.41,9.46a30.69,30.69,0,0,1-1.4,10.27,12,12,0,0,1-4.16,5.82,10.82,10.82,0,0,1-6.49,2,8.87,8.87,0,0,1-9.45-8.36Zm16.91-14.84a8.09,8.09,0,0,0-1.89-5.65,5.94,5.94,0,0,0-4.56-2.09,6.28,6.28,0,0,0-4.79,2.25,8.3,8.3,0,0,0-2,5.83,7.22,7.22,0,0,0,1.94,5.22,6.4,6.4,0,0,0,4.79,2,6.11,6.11,0,0,0,4.71-2A7.86,7.86,0,0,0,1508.56,293.24Z"/><path d="M1538.88,311.89v4h-22.24a7.38,7.38,0,0,1,.48-2.87,15.25,15.25,0,0,1,2.72-4.47,42,42,0,0,1,5.41-5.09,46.39,46.39,0,0,0,7.41-7.13,8.57,8.57,0,0,0,1.93-5,5.51,5.51,0,0,0-1.76-4.14,6.32,6.32,0,0,0-4.58-1.69,6.45,6.45,0,0,0-4.77,1.79,6.73,6.73,0,0,0-1.81,5l-4.25-.44a10.45,10.45,0,0,1,3.28-7.24,11.21,11.21,0,0,1,7.64-2.49,10.67,10.67,0,0,1,7.67,2.69,8.82,8.82,0,0,1,2.82,6.65,10.08,10.08,0,0,1-.82,4,15.66,15.66,0,0,1-2.75,4.11,65.61,65.61,0,0,1-6.37,5.92c-2.47,2.08-4.07,3.49-4.77,4.24a13.67,13.67,0,0,0-1.74,2.23Z"/><path d="M1564.74,290.46l-4.11.32a7.7,7.7,0,0,0-1.56-3.53,5.46,5.46,0,0,0-4.13-1.77,5.67,5.67,0,0,0-3.46,1.1,9.43,9.43,0,0,0-3.08,4.15,21.75,21.75,0,0,0-1.17,7.78,9.6,9.6,0,0,1,3.65-3.37,9.86,9.86,0,0,1,4.52-1.1,9.34,9.34,0,0,1,7,3,10.91,10.91,0,0,1,2.91,7.86,13,13,0,0,1-1.37,5.89,9.93,9.93,0,0,1-3.75,4.16,10.2,10.2,0,0,1-5.42,1.45,10.59,10.59,0,0,1-8.42-3.8q-3.26-3.79-3.26-12.52,0-9.75,3.61-14.18a10.34,10.34,0,0,1,8.46-3.86,9,9,0,0,1,9.55,8.38ZM1547.87,305a9.5,9.5,0,0,0,.91,4.09,6.71,6.71,0,0,0,2.54,3,6.31,6.31,0,0,0,3.41,1,5.81,5.81,0,0,0,4.5-2.11,8.29,8.29,0,0,0,1.88-5.74,7.79,7.79,0,0,0-1.85-5.49,6.11,6.11,0,0,0-4.69-2,6.38,6.38,0,0,0-4.75,2A7.21,7.21,0,0,0,1547.87,305Z"/></g></svg>